<?xml version="1.0" encoding="utf-8"?>
<!-- Generator: Adobe Illustrator 14.0.0, SVG Export Plug-In . SVG Version: 6.00 Build 43363)  -->
<!DOCTYPE svg PUBLIC "-//W3C//DTD SVG 1.1//EN" "http://www.w3.org/Graphics/SVG/1.1/DTD/svg11.dtd">
<svg version="1.1" id="Layer_1" xmlns="http://www.w3.org/2000/svg" xmlns:xlink="http://www.w3.org/1999/xlink" x="0px" y="0px"
	 width="175px" height="187px" viewBox="0 0 175 187" enable-background="new 0 0 175 187" xml:space="preserve">
<g>
	<g>
		<path d="M168.934,55.831V20.429c0-2.145,0.082-5.109,0.158-7.725c0.023-0.947,0.049-1.854,0.068-2.672
			c0.072-2.896-1.346-5.627-3.758-7.235l-0.228-0.153c-2.067-1.379-4.643-1.777-7.03-1.087L142.813,5.98
			c-3.617,1.044-6.107,4.354-6.107,8.117v0.382c0,2.66,1.252,5.152,3.355,6.742v1.318c-2.979-1.53-6.58-2.521-10.892-2.694
			c-0.53-0.021-1.062,0.007-1.582,0.085c-0.558-0.034-1.116-0.014-1.678,0.063c-5.15,0.719-9.677,2.651-13.341,5.507
			c-0.752-1.906-2.172-3.518-4.065-4.466l-0.151-0.076c-1.453-0.727-3.084-1.018-4.699-0.843l-15.608,1.71
			c-0.401-0.302-0.835-0.567-1.294-0.797l-0.152-0.076c-1.446-0.719-3.069-1.012-4.676-0.837l-15.113,1.632
			C60.711,12.943,49.446,7.684,34.221,7.029c-0.753-0.034-23.857-0.007-23.857-0.007c-4.666,0-8.448,3.781-8.448,8.448v0.608
			c0,3.771,2.488,7.034,6.014,8.091c0.007,0.226,0.013,0.477,0.013,0.759v29.141c0,0.283-0.006,0.535-0.013,0.759
			c-3.526,1.058-6.014,4.319-6.014,8.089v0.611c0,4.666,3.782,8.448,8.448,8.448h65.519c1.507,0.338,3.106,0.534,4.813,0.534
			c2.79,0,5.392-0.505,7.753-1.482c0.168,0.101,0.342,0.195,0.521,0.283l0.303,0.154c1.524,0.761,3.244,1.045,4.93,0.813
			l16.094-2.213c1.297-0.178,2.488-0.645,3.52-1.328c3.744,2.398,8.4,3.848,13.943,3.848c1.998,0,3.865-0.229,5.631-0.609h31.063
			c4.666,0,8.446-3.782,8.446-8.448v-0.534C172.9,60.014,171.346,57.34,168.934,55.831z"/>
		<g>
			<g>
				<path fill="#FFFFFF" d="M10.364,62.917c4.348-0.686,6.026-2.593,6.026-8.848v-29.14c0-6.331-1.679-8.162-6.026-8.85v-0.608
					h19.757v48.058H10.364V62.917z M43.241,62.154c-2.822,0.84-6.103,1.297-9.382,1.374V62.84c2.059-0.076,5.034-1.067,6.788-2.136
					c5.035-3.127,8.086-10.069,8.086-21.358c0-11.519-3.661-18.156-9.611-21.513c-1.602-0.915-3.356-1.524-5.263-1.755V15.47
					c17.773,0.763,29.673,8.467,29.673,23.952C63.532,51.17,54.836,58.875,43.241,62.154z"/>
			</g>
			<g>
				<path fill="#FFFFFF" d="M71.008,36.601c0-3.892-0.687-5.11-4.426-5.722v-0.61l16.248-1.754l0.153,0.076v23.114
					c0,4.271,1.22,5.948,4.729,5.948c1.374,0,2.519-0.305,3.511-0.839v0.306c-1.677,3.433-4.655,6.941-10.527,6.941
					c-6.18,0-9.688-3.356-9.688-10.222V36.601z M104.723,55.061c0,3.662,0.766,4.576,2.367,5.492
					c0.607,0.152,1.602,0.687,2.059,0.762v0.383l-16.096,2.211l-0.305-0.151V36.601c0-3.892-0.457-5.11-4.195-5.722v-0.61
					l16.022-1.754l0.147,0.076V55.061z"/>
			</g>
			<g>
				<path fill="#FFFFFF" d="M127.076,28.973c-2.365,1.067-4.121,4.729-4.121,13.12c0,9.077,4.348,13.426,10.984,13.426
					c4.729,0,7.477-1.755,9.231-4.196l0.457,0.306c-0.994,4.271-5.338,12.511-15.869,12.511c-11.211,0-16.778-8.314-16.778-17.164
					c0-10.298,6.787-17.316,16.096-18.613V28.973z M125.17,40.565v-0.533l6.863-0.99c-0.152-4.806-0.992-9.46-3.201-10.146v-0.61
					c9.459,0.381,13.576,5.95,13.576,12.279H125.17z"/>
			</g>
			<g>
				<path fill="#FFFFFF" d="M148.51,19.971c0-2.746-0.688-3.661-2.061-4.654l-1.295-0.838v-0.382l15.332-4.424l0.229,0.151
					c-0.077,3.129-0.229,7.553-0.229,10.604v36.768c0,4.273,1.221,5.263,3.967,5.798v0.534h-19.834v-0.534
					c2.824-0.535,3.891-1.449,3.891-5.798V19.971z"/>
			</g>
		</g>
	</g>
	<path d="M156.281,107.129c-1.602-1.764-3.873-2.768-6.254-2.768h-1.285c-0.389,0-0.775,0.027-1.154,0.078
		c2.105-3.85,3.342-8.11,3.342-12.823c0-17.556-12.162-28.037-32.531-28.037c-10.313,0-30.804,0.418-33.418,0.483l-36.607,0.804
		c-3.688,0.081-6.896,2.543-7.927,6.084l-14.082,46.086c-1.233,3.953,0.582,8.219,4.286,10.071c5.398,2.697,9.507,4.867,13.258,8.23
		c4.838,4.301,6.638,7.68,6.638,12.471c0,9.104-8.634,16.465-23.094,19.691c-2.223,0.496-4.152,1.869-5.349,3.807
		c-1.197,1.938-1.562,4.275-1.009,6.486l0.321,1.283c0.951,3.816,4.379,6.404,8.189,6.404c0.492,0,0.991-0.045,1.492-0.135
		c17.31-3.091,30.854-8.688,40.255-16.636c4.812-4.067,8.544-8.803,11.168-14.06h64.295c4.354,0,7.996-3.307,8.412-7.641
		l3.211-33.396C158.664,111.249,157.881,108.891,156.281,107.129z M97.857,101.598c3.078-2.978,5.494-5.186,9.293-5.186
		c3.662,0,4.988,2.417,5.047,3.874c0.305,7.39-25.22,32.698-25.22,32.698c-0.719-15.047-9.521-24.182-16.244-29.815
		c-0.619-0.537-1.259-1.062-1.913-1.569h29.038V101.598z"/>
	<g>
		<g>
			<path fill="#FF0000" d="M29.29,175.749c19.427-4.336,29.703-15.252,29.703-27.938c0-8.186-3.692-13.647-9.473-18.785
				c-4.656-4.176-9.634-6.741-15.092-9.473l7.063-22.638c8.188,2.89,17.661,7.386,23.763,12.683
				c7.867,6.584,13.326,14.289,13.326,25.369c0,22.316-17.501,36.445-48.969,42.066L29.29,175.749z M48.556,73.313l36.606-0.803
				l-4.656,20.391l-37.89,0.803L48.556,73.313z"/>
		</g>
		<g>
			<path fill="#FF0000" d="M105.555,126.458h26.652c8.186,0,13.646-5.299,16.535-13.647h1.285l-3.213,33.396h-61.17L105.555,126.458
				z M109.086,121.641c5.939-6.584,11.561-12.846,11.561-21.354c0-6.903-4.496-11.559-13.328-11.559
				c-5.616,0-11.719,2.247-16.697,7.063l-0.963-0.642c4.176-11.399,13.969-23.121,28.74-23.121c15.734,0,24.082,6.904,24.082,19.589
				c0,12.521-13.004,22.156-32.754,30.826L109.086,121.641z"/>
		</g>
	</g>
	<polygon opacity="0.2" enable-background="new    " points="47.51,72.292 85.456,71.657 83.703,80.075 45.32,80.713 	"/>
	<path opacity="0.2" enable-background="new    " d="M73.645,136.948c-1.536-8.261-8.896-17.246-14.273-20.894
		c-5.378-3.65-12.485-7.902-20.744-9.99l2.897-8.969c7.915,2.793,16.82,4.764,22.718,9.883c7.604,6.363,15.753,16.035,15.753,26.74
		c0,6.141-3.47,15.906-6.158,20.514C74.605,149.625,75.181,145.206,73.645,136.948z"/>
	<polygon opacity="0.2" enable-background="new    " points="104.904,123.831 95.75,134.086 149.963,133.719 152.162,110.643 
		144.105,111.008 135.311,121.264 	"/>
	<path opacity="0.2" enable-background="new    " d="M98.643,75.003c2.643-0.771,5.469-1.194,8.471-1.194
		c18.027,0,27.592,7.911,27.592,22.441c0,8.65-5.416,16.1-14.676,22.827l20.41-10.267l5.129-20.515l-9.158-17.217l-19.049-2.564
		L98.643,75.003z"/>
</g>
</svg>
